<?xml version="1.0" encoding="utf-8"?>
<!-- Generator: Adobe Illustrator 14.0.0, SVG Export Plug-In . SVG Version: 6.00 Build 43363)  -->
<svg version="1.2" baseProfile="tiny" xmlns="http://www.w3.org/2000/svg" xmlns:xlink="http://www.w3.org/1999/xlink" x="0px"
	 y="0px" width="534.438px" height="588.797px" viewBox="0 0 534.438 588.797" xml:space="preserve">
<g id="Wings">
	<path fill="#FFFFFF" stroke="#000000" d="M265.77,350.997c89.333-12.667,110.666,30.5,110.666,30.5s7.918-25.584,60-9.334
		c32.084-54.417,96.668-41.667,96.668-41.667c-30.084-60.583-79.668-78.667-79.668-78.667s-34.666,62.083-99.332,73l-172.455,27.312
		c0,0-53.666,1-94.666-40.917c0,0-53.334,34.042-85.334,124c49-38.209,99.334-14.668,99.334-14.668s12.666-11.541,44.666-10.666
		C145.649,409.892,181.286,362.976,265.77,350.997z"/>
</g>
<g id="Body">
	<path fill="#FFFFFF" stroke="#000000" d="M207.486,340.084c0,0-34.55,6.163-60.55,58.329c2.5,27.667,30.938,42.757,30.938,42.757
		s-11.313,1.181-12.692,12.058c8.833,21.563,33.254,7.853,33.254,7.853s9.167,28,32,51.958
		c-0.333,29.001,14.065,41.378,14.065,41.378s-29.399,8.164-20.565,25.164c18.5,5.167,43.542-1.353,45.833-2.166
		s4.417-4.188,4.417-4.188s46.624,10,51.749-2.75c-7.875-24-35.249-17.813-35.249-17.813s64.583-9.25,89.499-41.5
		c40.584-66.333-27.25-177.875-27.25-177.875l15.25-20c0,0,14.188-18.469,14.5-50.313c8.75-6.75,27.084-13.313,27.084-13.313
		s-1.771-2.719-26.666-9.333c2.582-6.26,21.457-21.823,21.457-21.823s-13.688-0.625-34.438,3.25
		c5.754-15.431,21.813-29.906,21.813-29.906s-16.125,3.125-27.875,12.875c0,0-13.375-72.188-44.5-95.625
		c-8.875-28.375-25.79-46.104-25.79-46.104s-4.667,12.542-5.334,36.792c0,0-94.25,12.25-136,68.542
		c-28.5-0.542-51.333,13.333-51.333,13.333s22.146,6.219,43.667,22.958c0,0,1.114,25.386,24.614,68.302
		c-1.167,9.25,5.552,28.489,5.552,28.489s-13.056,12.438-16,21.625c19.5-17.417,20.417-14.083,20.417-14.083s-5.5,18-5.75,26.25
		c5.917-13.75,11.417-16.833,11.417-16.833l-2.583,18.667c0,0,5.068-9.695,9.25-12.25c18.083,24.625,39.167,22.417,39.167,22.417"/>
	<path fill="none" stroke="#000000" d="M276.937,522.08c0,0-8.75,0.875-25,11.667c-2,19.333,22.25,39.479,22.25,39.479"/>
	<path fill="none" stroke="#000000" d="M248.062,523.007c0,0,4.751,3.874,6.563,4.687s6.006,0.775,6.006,0.775"/>
	<path fill="none" stroke="#000000" d="M200.437,411.163c0,0-3.105,21.042-3.054,29.792c-0.052,8,1.054,20.125,1.054,20.125"/>
	<path fill="none" stroke="#000000" d="M184.937,415.705c0,0,4.5,0.417,8.333,2.917s5.367,6.296,5.367,6.296"/>
</g>
<g id="Face">
	
		<ellipse transform="matrix(0.9648 -0.2628 0.2628 0.9648 -61.959 78.4406)" fill="none" stroke="#000000" cx="262.253" cy="270.84" rx="24.288" ry="34.492"/>
	<path fill="none" stroke="#000000" d="M184.604,265.08c0,0,9.583,3.646,29.833,4.667c6.494,0.328,14.375-1.521,14.375-1.521"/>
	<path fill="none" stroke="#000000" d="M309.104,172.747c0,0-12.072,15.132-17,27.833c-4.123,9.132-12.073,35.052-11,34.614
		c0.817-4.435,8.194-27.391,8.194-27.391"/>
	<ellipse stroke="#000000" cx="256.233" cy="316.522" rx="1" ry="0.781"/>
	<path fill="none" stroke="#000000" d="M300.02,112.747c-0.614-4.74,0.197-4.594,0.197-4.594s8.588,0.968,7.16-8.271
		c-3.848-10.625-7.896-10.499-7.896-10.499s-1.065-0.366-0.273-7.866C297.896,91.892,299.155,112.007,300.02,112.747z"/>
</g>
<g id="Sword">
	<polygon fill="none" stroke="#000000" points="298.521,394.539 303.77,399.705 314.186,386.122 325.52,400.039 330.186,394.372 
		329.811,352.851 296.062,354.851 	"/>
	<path fill="#FFFFFF" stroke="#000000" d="M295.912,373.614c0,0-35.976-9.826-51.726,7.549c-14,21.625,11.481,25.311,15.209,23.089
		c8.125-9.381-10.657-3.646-8.115-15.167c2.083-11.416,25.656-13.703,25.656-13.703s8.5-0.688,14.906-0.359
		c3.31,0.209,12.249,3.294,12.874,2.172S295.912,373.614,295.912,373.614z"/>
	<polygon fill="none" stroke="#000000" points="298.521,394.539 303.77,399.705 314.186,386.122 325.52,400.039 330.186,394.372 
		330.186,401.372 326.186,404.815 314.186,390.455 304.193,404.815 298.854,400.372 	"/>
	<polygon fill="none" stroke="#000000" points="330.186,406.622 330.186,401.372 326.186,404.815 314.186,390.455 304.193,404.815 
		298.854,400.372 299.437,405.955 305.52,410.789 314.354,394.955 325.354,410.622 	"/>
	<polygon fill="#FFFFFF" stroke="#000000" points="319.104,588.163 328.547,407.979 325.354,410.622 314.354,394.955 
		305.52,410.789 301.953,407.955 	"/>
	<path fill="#FFFFFF" stroke="#000000" d="M268.812,393.976c2.563-3.891-3.792-7.092-6.292-7.383
		c4.375-6.533,19.854-8.93,22.854-9.023c6.375-0.5,21.933,3.476,21.933,3.476l-3.434-3.397l-11.062-2.25
		c0,0-24.051-2.903-38.375,8.344c-5.655,6.158-2.229,10.811-2.229,10.811S261.749,402.96,268.812,393.976z"/>
	<polygon fill="none" stroke="#000000" points="313.816,368.132 304.193,377.423 313.816,388.069 323.354,376.788 	"/>
	<path fill="#FFFFFF" stroke="#000000" d="M388.498,363.726c0,0-32.77-0.021-56.895,4.406c-3.084,0.49-9.189,7.805-9.189,7.805
		l0.939,0.852c0,0,5.488-3.323,8.863-3.906c44.543-0.75,50.531,1.094,50.531,1.094L388.498,363.726z"/>
	<path fill="#FFFFFF" stroke="#000000" d="M376.916,381.851c4.51-2.781,5.832-7.875,5.832-7.875l-50.02-1.103l-9.086,3.743
		l-4.35,4.976c0,0,9.039-4.21,13.736-4.21C376.197,377.548,376.363,381.799,376.916,381.851z"/>
</g>
<g id="Arm">
	<path fill="#FFFFFF" stroke="#000000" d="M336.529,314.257c-6.063-1.813-4.385-1.389-20.219-4.469
		c-16.508-0.495-38.457,2.914-45.624,9.25c-13.25,8.25-13.604,29.271-13,32.25c2.958,9,8.591,10.218,8.591,10.218
		s-1.404-7.655,1.534-23.134c-2.5,10.5-1.534,23.134-1.534,23.134s5.826,14.532,20.409,12.782c3.751-0.833,8-8.5,8-8.5
		s-11.719-7.281-10.625-23.25c-0.781,13.781,5.521,17.854,10.625,23.25c4.781,1.469,10.405,0.781,12.673,0.005
		c8.053-3.118,10.41-9.671,10.41-9.671s3.293-5.917,0.354-10.536c1.771,5.952,0.922,7.768-0.354,10.536
		c-1.457,3.167,18.209,7.917,28.627,6.922c0,0,24.414-1.943,26.895-30.784c0.645-5.68-1.355-29.409-31.271-31.805
		c-16.332-0.25-25.709,9.333-25.709,9.333S336.873,314.271,336.529,314.257z"/>
</g>
<g id="Antenna">
	<circle fill="#FFFFFF" stroke="#000000" cx="197.77" cy="27.497" r="26.417"/>
	<path fill="none" stroke="#000000" d="M199,53.839c0,0-1.563,18.636,1.937,44.761c1.25,8.021,15.806,21.986,15.806,21.986"/>
</g>
</svg>
