<?xml version="1.0" encoding="utf-8"?>
<!-- Generator: Adobe Illustrator 14.0.0, SVG Export Plug-In . SVG Version: 6.00 Build 43363)  -->
<svg version="1.2" baseProfile="tiny" id="Layer_3" xmlns="http://www.w3.org/2000/svg" xmlns:xlink="http://www.w3.org/1999/xlink"
	 x="0px" y="0px" width="319.084px" height="365.917px" viewBox="0 0 319.084 365.917" xml:space="preserve">
<path fill="none" stroke="#000000" d="M263.753,66.25c18.019,0,32.625-14.607,32.625-32.625S281.771,1,263.753,1
	s-32.625,14.607-32.625,32.625l-0.429,38.068l-31.762,88.167c-8.292-9-16.667-11-16.667-11l-3.167-10.833l-3.669-0.957l-3.333-12.5
	l7.169-2.876l-1.5-7.5c0,0,18.029-4.103,17.333-15.667c-0.958-15.917-26-18.096-26-18.096s-3.416-28.945-27.667-27.07
	c-4.167-4.063-9.417-3.438-9.417-3.438l-7.563-22.063c0.906-1.406,2.656-10.323-6.313-8.563c-7.25,2.646-1.958,11.438,0.872,10.636
	l4.963,22.248c0,0-3.835,2.429-3.147,7.554c-10.531,5.813-12.979,19.792-10.896,31.625l16.167,57.5c0,0-10.787,6.266-19.24,15.708
	l0.313,9.26c-15.688,4.813-10.927,19.844-10.927,19.844l-62.104,44.146l-25.156,8.385l-7.927,1.448
	c-0.589,4.583,3.167,10.167,3.167,10.167l7.354-2.521l-5.521,5.104l6.147,6.648l7.827-5.87l-4.891,8.139l9.298,5.752l4.264-9.648
	l14.604-18.354l62.875-43.458c3.365,1.594,6.938,0.313,6.938,0.313l10.917,64.125l-85.813,48.854c0,0-16.521-16.354-35.167-7.25
	c-2.854,12.021,13.271,45.646,32.167,54.25c18.479-6.729,12.083-33,12.083-33l97.927-54.136c9.489,1.886,20.906,1.886,29.938,0.188
	l98.136,54.948c0,0-6.104,22.646,11.646,32.896c15.875-10.5,32.95-32.125,32.95-55.625c-13.575-5.25-27.075-1.25-35.429,7.563
	l-85.24-47.97l4.125-78.688c9.875-2.938,10.813-14.75,9.063-20.063c0.078,0.016,31.719-92.198,31.719-92.198l13.333-12.333
	L263.753,66.25z"/>
</svg>
