<?xml version="1.0" encoding="utf-8"?>
<!-- Generator: Adobe Illustrator 14.0.0, SVG Export Plug-In . SVG Version: 6.00 Build 43363)  -->
<svg version="1.2" baseProfile="tiny" xmlns="http://www.w3.org/2000/svg" xmlns:xlink="http://www.w3.org/1999/xlink" x="0px"
	 y="0px" width="524.625px" height="513.469px" viewBox="0 0 524.625 513.469" xml:space="preserve">
<g id="Layer_2">
	<path stroke="#3953A4" d="M69.963,427.583c-3.156,0.125-64.375,46.904-68.875,70.904s165.375,8.013,170.125-26.237
		c0,0,2.75-31.75-1-16.417c-4.614,19.221-31.656,13.592-31.656,13.592s-29.916-23.433-36.5-27.813
		C93.463,435.896,73.119,427.458,69.963,427.583z"/>
</g>
<g id="Layer_3">
	<path stroke="#3953A4" d="M113.713,293.583c-27.333,5.667-45.204,126.87-42.87,131.537s16.12-3.537,68.667,42.667
		c29.454,4.796,30.204-18.329,30.204-18.329s4.723-34.235,1.083-58.042c-7.083-46.333-15.62-52.963-15.62-52.963
		s-15.463-2.12-24.713-16.12C118.463,302.583,121.406,293.083,113.713,293.583z"/>
</g>
<g id="Layer_4">
	<path stroke="#3953A4" d="M121.156,296.583c0,0,4.51,13.601,9.307,22.417c5.667,10.417,22.076,17.169,22.076,17.169
		c-6.467-13.391-6.564-13.322-13.159-22.586C132.11,303.37,121.156,296.583,121.156,296.583z"/>
</g>
<g id="Layer_5">
	<path stroke="#3953A4" d="M139.801,309.749c-5.497-6.074-17.542-14.666-17.542-14.666l69.5-41.167c0,0,6.224,15.813,10.734,23.542
		s18.625,20.438,18.625,20.438l-68.581,32.563C152.539,330.458,144.119,314.521,139.801,309.749z"/>
</g>
<g id="Layer_6">
	<path stroke="#3953A4" d="M201.131,243.25c0,0,6.5,25.167,19.167,44.667c3.633,5.592,5.5,9.926,5.5,9.926
		s-13.167-10.259-18.833-18.926s-13.585-26.889-13.585-26.889L201.131,243.25z"/>
</g>
<g id="Layer_7">
	<path stroke="#3953A4" d="M208.471,223.697c-4.797-9.187-6.425,17.72-6.425,17.72s7.667,22.297,11,29.5
		s10.813,18.875,14.667,26.926c5.229,4.407,15.688,3.74,22.25,0c2.292-15.01,19.709-29.51,19.709-29.51s17.333-15.833,20.083-17.667
		c-1.75-4.583-5.75-22.167-8.208-25.583c-11.375,6.083-24.428,4-30.178,5.813C237.025,243.833,210.612,233.291,208.471,223.697z"/>
</g>
<g id="Layer_9">
	<path stroke="#3953A4" d="M238.854,234.708c6.12-1.385,8.359-4.783,13.359-5.958c5.891-1.385,25.291-0.812,27.891-4.948
		c1.469-3.406-5.719-6.625-6.969-7.813c-15.344,0.156-25.906-2.031-30.719-4.906s-8.906-11.75-11.359-13.625
		s-19.156-4.375-19.156-4.375l-6,6c0,0,0.563,19.625,2.766,21.656c1.204,2.157,5.255,7.427,8.693,9.635
		S232.734,236.093,238.854,234.708z"/>
</g>
<g id="Layer_10">
	<path stroke="#3953A4" d="M234.307,198.458c0,0,8.125-6.313,12.219-7.813c3.858-1.414,13.833-1.734,13.833-1.734
		s2.542,13.046,11.292,24.171c4.875,2.625-19.281,0.438-25.219-2.5C240.054,207.428,234.307,198.458,234.307,198.458z"/>
</g>
<g id="Layer_11">
	<path stroke="#3953A4" d="M191.15,152.021c0,0-7,31.875,13.25,45.563c1.554,1.051,5.875-6.313,5.875-6.313
		s-0.982-11.888-3.232-14.013C195.043,167.758,191.15,152.021,191.15,152.021z"/>
</g>
<g id="Layer_12">
	<path stroke="#3953A4" d="M202.005,132.583c-2.75,1.083-9.583,17.75-9.583,17.75s4.611,17.608,15.861,25.233
		c3.743,6.058,3.868,15.933,3.868,15.933s15.148,2.599,20.969,3.875c3.438,0,7.27-4.529,12.313-6.438
		c6.937-2.625,14.219-1.979,14.219-1.979s-0.898-11.17-0.646-16.958c0.271-6.195,3.893-16.299,3.893-16.299
		s-21.103,8.767-32.622,3.799c-14.104-6.083-10.938-18.333-10.938-18.333l-6.333-6C213.005,133.167,204.654,131.539,202.005,132.583
		z"/>
</g>
<g id="Layer_13">
</g>
<g id="Layer_14">
	<ellipse stroke="#3953A4" cx="321.106" cy="174.214" rx="59.439" ry="60.809"/>
</g>
<g id="Layer_15">
	<circle stroke="#3953A4" cx="320.087" cy="173.583" r="38.25"/>
</g>
<g id="Layer_18">
	<circle stroke="#3953A4" cx="320.118" cy="173.489" r="23.25"/>
</g>
<g id="Layer_16">
	<circle stroke="#3953A4" cx="319.462" cy="172.708" r="12.875"/>
</g>
<g id="Layer_17">
	<polygon stroke="#3953A4" points="303.665,160.083 306.962,163.819 305.649,165.896 300.775,165.427 	"/>
	<polygon stroke="#3953A4" points="299.728,168.177 304.353,169.208 304.015,172.764 299.416,173.489 	"/>
	<polygon stroke="#3953A4" points="299.228,175.958 304.353,175.864 305.665,179.302 301.291,181.958 	"/>
	<polygon stroke="#3953A4" points="306.817,181.542 301.984,183.896 305.14,187.667 308.442,183.542 	"/>
	<polygon stroke="#3953A4" points="311.899,192.958 313.067,186.917 310.442,185.583 306.774,189.667 	"/>
	<polygon stroke="#3953A4" points="315.774,187.5 314.446,193.742 319.81,194.362 318.772,187.771 	"/>
	<polygon stroke="#3953A4" points="321.524,187.667 321.733,194.042 327.112,193.187 324.399,187.25 	"/>
	<polygon stroke="#3953A4" points="326.978,186.409 329.024,192.167 333.399,189.271 329.397,184.872 	"/>
	<path stroke="#3953A4" d="M331.378,182.917l3.953,4.969c0,0,3.225-5.625,3.266-5.5s-5.363-2.136-5.363-2.136L331.378,182.917z"/>
	<path stroke="#3953A4" d="M334.024,177.771l5.328,2.656c0,0,0.98-6.156,0.938-6.281c-0.041-0.125-5.594,0.469-5.594,0.469
		L334.024,177.771z"/>
	<polygon stroke="#3953A4" points="334.103,168.552 334.79,172.078 340.228,171.708 338.821,166.364 	"/>
	<polygon stroke="#3953A4" points="334.868,159.614 338.415,164.239 333.384,166.583 331.56,163.736 	"/>
	<polygon stroke="#3953A4" points="329.075,161.058 332.946,157.521 328.353,154.614 326.603,159.292 	"/>
	<polygon stroke="#3953A4" points="320.696,153.021 321.163,157.882 324.071,158.427 326.134,153.396 	"/>
	<polygon stroke="#3953A4" points="318.259,152.927 318.478,157.836 315.665,158.208 313.517,154.125 	"/>
	<polygon stroke="#3953A4" points="310.821,154.896 312.353,159.427 310.103,160.864 305.858,158.208 	"/>
</g>
<g id="Layer_19">
	<path stroke="#3953A4" d="M252.882,299.208c19.563-24.5,40.956-35.75,41.331-38.25s-2.875-8.25-2.875-8.25
		S250.463,281.208,252.882,299.208z"/>
</g>
<g id="Layer_20">
	<path stroke="#3953A4" d="M295.212,264.708c4.805,5.542,33.021,39.822,32.417,42.708c-8.418,16.198-7.605,22.073-8.668,27.417
		c-6.688,8.281-7.338,15.176-7.338,15.176s-52.036-44.238-54.161-52.166C256.796,292.791,293.421,262.641,295.212,264.708z"/>
</g>
<g id="Layer_21">
	<path stroke="#3953A4" d="M319.755,336.792c0,0-5.639,6.995-5.834,12.5c-0.584,3.583,3,14.167,4.084,14.167
		C319.921,357.875,319.755,336.792,319.755,336.792z"/>
	<path stroke="#3953A4" d="M330.171,308.667c-3.076,1.158-8.084,19.917-8.084,19.917s0.918,29.25-3.438,39.999
		c-2.535,6.261,17.563,50.167,17.563,50.167s18.75,42.958,47.875,50.583c12,0.875,26.877-37.736,26.877-37.736
		s12.113-21.913,46.863-15.83c3.875-1.833-54.365-57.559-54.365-57.559S343.005,303.834,330.171,308.667z"/>
</g>
<g id="Layer_22">
	<path stroke="#3953A4" d="M361.796,460.417c-0.828,2.223,7.916,14.291,11.666,16.916c4.355,3.048,59,40.604,149.25,34.75
		c10.5-19.5-56.582-90.834-62.75-94.417c-8.25-1.083-13-2.666-31.25,2.584c-16.416,5.5-20.125,25.125-30,41.25
		C384.378,486,363.378,456.167,361.796,460.417z"/>
</g>
<g id="Layer_23">
	<path stroke="#3953A4" d="M164.275,201.896c0,0,7.469-5.5-2.156-21.125c-8.281-11.75-14.188-10.757-14.188-10.757
		s8.25,6.882,11.25,13.819C162.307,188.271,164.275,201.896,164.275,201.896z"/>
</g>
<g id="Layer_24">
	<path stroke="#3953A4" d="M175.94,142.583c0,0,3.625,17.25,11.625,24c-0.625,2,1.188,10.5,1.75,12.75
		c-2.063,1.063-15.5,11.125-19.875,17c-0.75-11.875-9.042-25.208-19.042-28.083C151.023,165.25,175.94,142.583,175.94,142.583z"/>
</g>
<g id="Layer_25">
	<path stroke="#3953A4" d="M200.338,130.708c0,0-14.25,20.25-12.375,33.096c-1.75-0.096-10.375-13.346-9.625-26.596
		s6.125-20.375,8.25-21.5C193.088,128.833,200.338,130.708,200.338,130.708z"/>
</g>
<g id="Layer_26">
	<path stroke="#3953A4" d="M39.046,199.417c0.375,4.458,8.792,10.042,8.792,10.042s18.25,24.75,30,29.25s33.313-5.438,34-6
		c11.563-19.563,4.991-28.09,2.81-32.688c-3.497-7.368-7.99-5.459-8.282-7c-0.5-3.75,3.535-6.625,4.722-12.562
		c0.563-3.438-3.813-10.188-3.813-10.188l-2.125-9l-3.375-6.5c0,0,0.5-9.125-2.341-14.448c-2.831-5.303-15.221-3.069-18.221,1.677
		c-3.22,5.094-3.125,11.458-3.125,11.458s-13.125-1.375-19,0.5s-9.25,6.5-9.25,6.5l-7.75,21.75
		C42.088,182.208,38.671,194.958,39.046,199.417z"/>
</g>
<g id="Layer_39">
	<path fill="none" stroke="#3953A4" d="M98.9,219.833c0,0-2.875,7.125-1.375,7.875s15.5-13,11.625-20.875
		c-3.125-6.75-7.25-6.125-7.25-6.125s-8.75,0-11.125,1.188s-8,7.688-8,7.688"/>
	<path fill="none" stroke="#3953A4" d="M68.921,198.601c0,0,9.523-13.068,11.752-14.151s6.227-1.945,16.415-0.409
		c9.167,6.583,4.417,16.651,4.417,16.651"/>
	<path fill="none" stroke="#3953A4" d="M57.463,185.25c0,0,10-15.667,14.167-17.5s14.562,0.521,16.646,1.021
		s6.525,3.646,6.771,5.979s-0.75,8.46-0.75,8.46"/>
	<path fill="none" stroke="#3953A4" d="M78.088,153.458c0,0,5.875,1.5,7.125,2.875c0.375,9,6.383,14.164,6.383,14.164
		s2.055,2.711,6.242,3.711c8.5-1.938,4.067-19.188,4.067-19.188"/>
</g>
<g id="Layer_28">
	<path stroke="#3953A4" d="M113.676,179.389c4.757,8.359,7.495,18.167,6.079,26.583c-0.333,1.667-1.745-12.25-10.912-14.667
		C113.093,185.723,112.343,179.639,113.676,179.389z"/>
</g>
<g id="Layer_27">
	<path stroke="#3953A4" d="M108.656,168.3c18.438,17.438,13.047,41.2,13.047,41.2s2.167,11-6.833,22
		c18.167-3.667,44.167-19,46.333-25.5s-3.167-27.667-16-35.167C132.37,162.167,109.323,166.758,108.656,168.3z"/>
</g>
<g id="Layer_29">
	<path stroke="#3953A4" d="M186.4,85.862c-0.875-0.125-10.5,8.5,1.125,28s23.375,17.5,23.875,16.875
		C198.025,121.737,186.15,90.125,186.4,85.862z"/>
</g>
<g id="Layer_30">
	<path stroke="#3953A4" d="M221.775,141.458c4.875,5,11.875,12.5,21.75,15c0.625,1.625-8.741,1.625-15.866-3.375
		S220.275,141.208,221.775,141.458z"/>
</g>
<g id="Layer_31">
	<path stroke="#3953A4" d="M206.445,89.36l8.333,40.167c0,0,14.229,19.25,36.167,26c7.802-0.783,11.679-4.412,12.185-5
		c11.597-24.5,25.649-29.833,25.649-29.833l7.334-29.833l-6-4.167l-40.001,23.667l-40-25.5L206.445,89.36z"/>
</g>
<g id="Layer_32">
	<path stroke="#3953A4" d="M199.63,111.667c-3.211-5.357-9.25-18.917-9.75-22.667s-0.565-22.25-0.565-22.25l18.064-11.667
		l38.167,50.333l-35.833-23l-5.5,6.5l8,39.5C212.213,128.417,202.841,117.023,199.63,111.667z"/>
</g>
<g id="Layer_33">
	<path stroke="#3953A4" d="M254.213,105.417c0,0,37.187-48.333,38.062-48.708c5.688,3.458,14.619,9.106,21.125,15
		c0.625,1.875-2.82,21.883-3.375,22.625c-7.374,19-18.75,25.125-18.75,25.125l7.25-29.75l-8.078-5.549L254.213,105.417z"/>
</g>
<g id="Layer_34">
	<path stroke="#3953A4" d="M314.587,81.167c0,0,3.264,9.161,1.918,17.167c-2.512,14.938-15.589,16.913-14.833,16
		C314.921,98.333,314.587,81.167,314.587,81.167z"/>
</g>
<g id="Layer_35">
	<path stroke="#3953A4" d="M205.046,31.25c-12.667,13.333-16.042,32.208-15.604,32.646s18.604-11.646,18.604-11.646l42,54.667
		c0,0,40.209-53.541,42.166-53.667c1.959-0.125,20.166,14.125,20.833,14c0.666-0.125,1.541-17.542-14.083-37.292
		c-14-18-32.625-20.5-32.625-20.5s3.691,21.886,4.25,33.375c0.75,15.417-5.75,21.351-5.75,21.351s-2.5,16.982-9.875,27.065
		c-0.438,0.458-9.748,0.165-9.748,0.165s-7.669-6.998-10.169-26.832c-4.833-1.833-4-10.5-4-10.5s0.293-17.665,0.5-27
		c0.188-8.504,3.333-16.167,3.333-16.167S217.713,17.917,205.046,31.25z"/>
</g>
<g id="Layer_36">
	<path stroke="#3953A4" d="M240.796,55.917h18.083c0,0,3.083,3.167,3.667,7.917c0.58,4.717-8.376,25.088-8.709,25.375
		s-7.083,0.479-7.75-0.188c-3.938-3.313-9.071-20.556-8.542-24.438C238.046,60.917,240.796,55.917,240.796,55.917z"/>
</g>
<g id="Layer_37">
	<path stroke="#3953A4" d="M240.076,3.334c0,0-4.469,8.479-5.833,18.25c-0.76,3.542-3.135,38.667,1.74,40.542
		c1.813-5.25,3.875-8.25,3.875-8.25l19.969-0.125c0,0,2.219,1.958,4.219,7.563c7.563-11,3.25-33.938,3.25-33.938
		c-0.395-4.156-4.802-23.375-4.802-23.375l-0.289,47.844l-23.587,0.156L240.076,3.334z"/>
</g>
<g id="Layer_38">
	<path stroke="#3953A4" d="M240.838,50.083h19.167V3.168c0,0-2.607-2.168-8.758-2.168s-9.326,2.168-9.326,2.168L240.838,50.083z"/>
</g>
</svg>
